<?xml version="1.0" encoding="UTF-8"?>
<svg width="480px" height="702px" viewBox="0 0 480 702" version="1.1" xmlns="http://www.w3.org/2000/svg" xmlns:xlink="http://www.w3.org/1999/xlink">
    <!-- Generator: Sketch 52.6 (67491) - http://www.bohemiancoding.com/sketch -->
    <title>gitlab-illo</title>
    <desc>Created with Sketch.</desc>
    <defs>
        <linearGradient x1="0%" y1="0%" x2="100%" y2="0%" id="linearGradient-1">
            <stop stop-color="#523E8E" stop-opacity="0" offset="0%"></stop>
            <stop stop-color="#624DA1" offset="100%"></stop>
        </linearGradient>
        <linearGradient x1="0%" y1="50%" x2="100%" y2="50%" id="linearGradient-2">
            <stop stop-color="#523E8E" stop-opacity="0" offset="0%"></stop>
            <stop stop-color="#624DA1" offset="100%"></stop>
        </linearGradient>
        <linearGradient x1="0%" y1="100%" x2="100%" y2="63.2987554%" id="linearGradient-3">
            <stop stop-color="#523E8E" stop-opacity="0" offset="0%"></stop>
            <stop stop-color="#624DA1" offset="100%"></stop>
        </linearGradient>
    </defs>
    <g id="homepage---hero" stroke="none" stroke-width="1" fill="none" fill-rule="evenodd" opacity="0.7">
        <g id="homepage-hero-c-3" transform="translate(-1094.000000, -347.000000)">
            <g id="gitlab-illo" transform="translate(1096.000000, 348.000000)">
                <path d="M38,23.5 C36.8954305,23.5 36,22.6045695 36,21.5 C36,20.3954305 36.8954305,19.5 38,19.5 L354.99955,19.5 C356.104119,19.5 356.99955,20.3954305 356.99955,21.5 C356.99955,22.6045695 356.104119,23.5 354.99955,23.5 L38,23.5 Z" id="Path-5" fill="url(#linearGradient-1)" fill-rule="nonzero"></path>
                <path d="M175.527344,515.5 C174.422774,515.5 173.527344,514.604569 173.527344,513.5 C173.527344,512.395431 174.422774,511.5 175.527344,511.5 L330,511.5 C331.104569,511.5 332,512.395431 332,513.5 C332,514.604569 331.104569,515.5 330,515.5 L175.527344,515.5 Z" id="Path-5-Copy" fill="url(#linearGradient-1)" fill-rule="nonzero"></path>
                <path d="M-3.63797881e-12,188.3935 C-1.1045695,188.3935 -2,187.498069 -2,186.3935 C-2,185.288931 -1.1045695,184.3935 -3.63797881e-12,184.3935 L140,184.3935 C141.104569,184.3935 142,185.288931 142,186.3935 C142,187.498069 141.104569,188.3935 140,188.3935 L-3.63797881e-12,188.3935 Z" id="Path-6" fill="url(#linearGradient-2)" fill-rule="nonzero"></path>
                <g id="Group-13-Copy-2" transform="translate(365.000000, 0.000000)" stroke="#624DA1" stroke-linecap="round" stroke-linejoin="round" stroke-width="2">
                    <path d="M32,26.4 C32,29.431 31.245,31.942 27.637,35.2 C24.893,37.676 20.71,40.875 17.22,43.19 C16.812,43.46 16.406,43.73 16,44 C15.591,43.728 15.181,43.456 14.771,43.184 C11.284,40.87 7.104,37.674 4.363,35.2 C0.755,31.942 0,29.431 0,26.4 L0,5.867 L16,0 L32,5.867 L32,26.4 Z" id="Stroke-11"></path>
                    <path d="M10.932,30 L8.638,30 C8.286,30 8,29.671 8,29.266 L8,16.734 C8,16.329 8.286,16 8.638,16 L23.363,16 C23.715,16 24,16.329 24,16.734 L24,29.266 C24,29.671 23.715,30 23.363,30 L21.072,30" id="Stroke-1"></path>
                    <path d="M21,16 L11,16 L11,12.76 C11,11.236 12.235,10 13.761,10 L18.239,10 C19.765,10 21,11.236 21,12.76 L21,16 Z" id="Stroke-3"></path>
                    <path d="M16,30 C16,31.104 15.104,32 14,32 C12.896,32 12,31.104 12,30 C12,28.896 12.896,28 14,28 C15.104,28 16,28.896 16,30 Z" id="Stroke-5"></path>
                    <path d="M14,24 L15.18,25.063" id="Stroke-7"></path>
                    <path d="M17.699,22 L15,24.909" id="Stroke-9"></path>
                </g>
                <g id="Group-7-Copy-2" transform="translate(142.000000, 164.000000)" stroke="#624DA1" stroke-linecap="round" stroke-linejoin="round" stroke-width="2">
                    <path d="M16.041,10.063 C16.666,6.251 18.288,3.49 21.568,0.186 C21.797,-0.044 22.178,-0.07 22.406,0.161 C26.624,4.409 28.263,8.415 28.275,14.493 C28.263,15.964 28.174,17.564 28.034,19.24 L32.596,24.346 C32.71,24.487 32.761,24.692 32.723,24.884 L30.689,32.664 C30.664,32.767 30.613,32.843 30.537,32.92 C30.436,33.022 30.296,33.086 30.131,33.099 L28.505,33.099 C28.288,33.086 28.098,32.971 27.996,32.792 L25.57,27.946 L18.43,27.946 L16.004,32.792 C15.979,32.843 15.94,32.881 15.902,32.92 C15.801,33.022 15.647,33.099 15.495,33.099 L13.869,33.099 C13.603,33.086 13.374,32.907 13.311,32.664 L11.277,24.884 C11.239,24.692 11.29,24.487 11.404,24.346 L15.966,19.24" id="Stroke-1"></path>
                    <path d="M18.1211,10.8789 C19.2931,12.0499 19.2931,13.9499 18.1211,15.1209 C16.9501,16.2929 15.0501,16.2929 13.8791,15.1209 C12.7071,13.9499 12.7071,12.0499 13.8791,10.8789 C15.0501,9.7069 16.9501,9.7069 18.1211,10.8789 Z" id="Stroke-3"></path>
                    <path d="M0,44 C0,41.701 1.863,39.838 4.162,39.838 C5.338,39.838 6.398,40.328 7.155,41.111 C8.265,38.611 10.764,36.865 13.676,36.865 C15.588,36.865 17.32,37.622 18.602,38.846 L20.216,27.946 L23.784,27.946 L25.398,38.846 C26.68,37.622 28.412,36.865 30.324,36.865 C33.236,36.865 35.735,38.611 36.845,41.111 C37.603,40.327 38.662,39.838 39.838,39.838 C42.137,39.838 44,41.701 44,44 L23.189,44 L20.811,44 L0,44 Z" id="Stroke-5"></path>
                </g>
                <path d="M176,679.515625 C174.895431,679.515625 174,678.620194 174,677.515625 C174,676.411056 174.895431,675.515625 176,675.515625 L426.5206,675.515625 C427.625169,675.515625 428.5206,676.411056 428.5206,677.515625 C428.5206,678.620194 427.625169,679.515625 426.5206,679.515625 L176,679.515625 Z" id="Path-7" fill="url(#linearGradient-2)" fill-rule="nonzero"></path>
                <g id="Group-15-Copy-2" transform="translate(437.000000, 656.000000)" stroke="#624DA1" stroke-linecap="round" stroke-linejoin="round" stroke-width="2">
                    <path d="M21.9989,-0.0001 C20.3419,-0.0001 18.9989,1.3429 18.9989,2.9999 C18.9989,4.6569 20.3419,5.9999 21.9989,5.9999 C23.6549,5.9999 24.9989,4.6569 24.9989,2.9999 C24.9989,1.3429 23.6549,-0.0001 21.9989,-0.0001 Z" id="Stroke-1"></path>
                    <polyline id="Stroke-3" points="9.6551 -0.0001 12.6291 2.9729 9.6551 5.9459"></polyline>
                    <path d="M17.9969,43.9999 C19.6539,43.9999 20.9969,42.6569 20.9969,40.9999 C20.9969,39.3429 19.6539,37.9999 17.9969,37.9999 C16.3399,37.9999 14.9969,39.3429 14.9969,40.9999 C14.9969,42.6569 16.3399,43.9999 17.9969,43.9999 Z" id="Stroke-5"></path>
                    <polyline id="Stroke-7" points="30.0897 43.9999 27.1167 41.0269 30.0897 38.0539"></polyline>
                    <path d="M13.9998,40.9281 L4.4798,40.9281 C2.0058,40.9281 -0.0002,38.8151 -0.0002,36.2081 L-0.0002,29.7181 L-0.0002,14.1371 L-0.0002,7.6481 C-0.0002,5.0411 2.0058,2.9281 4.4798,2.9281 L11.7598,2.9281" id="Stroke-9"></path>
                    <path d="M28.0018,40.9281 L35.4308,40.9281 C37.9548,40.9281 40.0018,38.6661 40.0018,35.8751 L40.0018,28.9281 L40.0018,14.2251 L40.0018,7.6851 C40.0018,5.0571 37.8528,2.9281 35.2018,2.9281 L25.0018,2.9281" id="Stroke-11"></path>
                    <polyline id="Stroke-13" points="8.0008 23.4882 12.1058 23.4882 15.8958 29.7282 22.2118 14.1282 25.3688 23.4882 32.0008 23.4882"></polyline>
                </g>
                <g id="Group-9-Copy-4" transform="translate(340.000000, 492.000000)" stroke="#624DA1" stroke-linecap="round" stroke-linejoin="round" stroke-width="2">
                    <path d="M43.9092,34.5906 C43.2872,34.2536 42.6632,33.9166 42.0422,33.5776 C41.7222,33.4026 41.5272,33.1386 41.4812,32.8006 C41.4732,32.7376 41.4612,32.6776 41.4632,32.6086 C41.4832,32.0626 41.4682,31.5176 41.4232,30.9726 C41.4172,30.8986 41.4262,30.8306 41.4312,30.7616 L41.4642,30.5726 C41.5332,30.3126 41.6932,30.0966 41.9532,29.9356 C42.3872,29.6666 42.8242,29.4036 43.2612,29.1386 C43.4582,29.0186 43.6552,28.8976 43.8582,28.7746 C43.4952,27.6016 43.0052,26.4936 42.3772,25.4456 C42.3572,25.4516 42.3452,25.4556 42.3292,25.4596 L42.3392,25.4006 C41.6532,25.6026 40.9682,25.8016 40.2832,26.0076 C39.8252,26.1456 39.4252,26.0616 39.0972,25.7096 C38.7242,25.3086 38.3282,24.9346 37.9102,24.5816 C37.6612,24.3716 37.5342,24.1156 37.5192,23.8256 C37.5192,23.7396 37.5262,23.6526 37.5472,23.5616 C37.7072,22.8606 37.8822,22.1626 38.0562,21.4656 C38.0652,21.4296 38.0622,21.4056 38.0552,21.3836 C38.0612,21.3586 38.0672,21.3346 38.0732,21.3086 C36.9862,20.7356 35.8542,20.2986 34.6682,20.0006 C34.6472,20.0366 34.6322,20.0636 34.6172,20.0906 C34.2792,20.7116 33.9422,21.3346 33.6022,21.9546 C33.3902,22.3406 33.0592,22.5486 32.6202,22.5366 C32.0482,22.5206 31.4772,22.5346 30.9072,22.5786 C30.4822,22.6116 30.1422,22.4326 29.9182,22.0756 C29.5342,21.4666 29.1632,20.8506 28.7922,20.2336 C28.7482,20.1606 28.7082,20.1526 28.6382,20.1776 C28.1492,20.3616 27.6552,20.5316 27.1702,20.7276 C26.5902,20.9626 26.0362,21.2536 25.4972,21.5696 C25.4552,21.5936 25.4202,21.6186 25.4232,21.6736 C25.4162,21.6776 25.4092,21.6806 25.4032,21.6846 C25.4142,21.7256 25.4242,21.7606 25.4332,21.7966 C25.6342,22.4716 25.8362,23.1456 26.0332,23.8216 C26.0562,23.9036 26.0662,23.9826 26.0742,24.0606 C26.0852,24.3906 25.9622,24.6826 25.6792,24.9376 C25.2892,25.2856 24.9372,25.6706 24.6012,26.0706 C24.3032,26.4256 23.9202,26.5466 23.4702,26.4396 C22.8342,26.2876 22.2002,26.1326 21.5652,25.9796 C21.4812,25.9586 21.3972,25.9386 21.3112,25.9176 C21.2182,26.0946 21.1502,26.2796 21.0642,26.4596 C21.0542,26.4816 21.0422,26.5026 21.0312,26.5246 C21.0152,26.5566 21.0052,26.5906 20.9902,26.6236 C20.5832,27.4926 20.2362,28.3836 20.0002,29.3166 C20.0062,29.3196 20.0102,29.3226 20.0142,29.3256 C20.0122,29.3616 20.0182,29.3886 20.0632,29.4126 C20.6812,29.7446 21.2982,30.0816 21.9152,30.4146 C22.3402,30.6426 22.5572,30.9896 22.5392,31.4736 C22.5172,32.0046 22.5282,32.5336 22.5792,33.0626 C22.5872,33.1396 22.5782,33.2096 22.5732,33.2806 C22.5422,33.5996 22.3822,33.8646 22.0912,34.0506 C21.7002,34.2996 21.3012,34.5366 20.9052,34.7776 C20.6542,34.9306 20.4042,35.0836 20.1552,35.2356 C20.1572,35.2546 20.1562,35.2666 20.1602,35.2776 C20.1612,35.2796 20.1612,35.2816 20.1622,35.2836 C20.1582,35.2866 20.1542,35.2886 20.1502,35.2906 C20.1522,35.3066 20.1522,35.3136 20.1542,35.3196 C20.1982,35.4616 20.2622,35.5946 20.3092,35.7356 C20.3192,35.7646 20.3282,35.7946 20.3392,35.8236 C20.3522,35.8636 20.3712,35.9006 20.3862,35.9396 C20.7102,36.8496 21.0972,37.7306 21.5902,38.5656 C21.6272,38.6276 21.6632,38.6126 21.7122,38.5986 C22.4032,38.3936 23.0942,38.1856 23.7862,37.9866 C24.1912,37.8706 24.5622,37.9566 24.8542,38.2586 C25.2612,38.6826 25.6852,39.0846 26.1302,39.4696 C26.3602,39.6696 26.4732,39.9186 26.4822,40.1956 C26.4822,40.2966 26.4722,40.3996 26.4462,40.5076 L26.0712,42.0486 C26.0232,42.2476 25.9752,42.4476 25.9282,42.6446 C25.9402,42.6546 25.9452,42.6586 25.9502,42.6616 L25.9532,42.6636 C25.9652,42.7136 26.0092,42.7436 26.1192,42.8036 C26.1402,42.8166 26.1632,42.8276 26.1852,42.8386 C26.8822,43.1906 27.6032,43.4876 28.3462,43.7276 C28.6432,43.8226 28.9462,43.9036 29.2462,43.9896 C29.2942,44.0036 29.3342,44.0136 29.3682,43.9496 C29.7062,43.3216 30.0492,42.6966 30.3902,42.0696 C30.6082,41.6696 30.9482,41.4616 31.4032,41.4746 C31.9572,41.4906 32.5092,41.4806 33.0612,41.4326 C33.5122,41.3946 33.8612,41.5786 34.1002,41.9616 C34.2972,42.2756 34.4882,42.5936 34.6812,42.9096 C34.8742,43.2256 35.0672,43.5426 35.2632,43.8616 C36.4372,43.5006 37.5492,43.0106 38.6002,42.3836 C38.5922,42.3526 38.5852,42.3306 38.5792,42.3066 C38.5812,42.2936 38.5882,42.2836 38.5822,42.2636 C38.3762,41.5806 38.1752,40.8966 37.9722,40.2126 C37.9422,40.1106 37.9262,40.0106 37.9212,39.9136 C37.9152,39.6376 38.0102,39.3826 38.2282,39.1726 C38.6582,38.7586 39.0672,38.3276 39.4612,37.8796 L39.9672,37.5206 C40.1382,37.4776 40.3212,37.4716 40.5182,37.5186 C40.8802,37.6016 41.2402,37.6916 41.6012,37.7786 C41.9622,37.8656 42.3232,37.9536 42.6872,38.0416 C43.2622,36.9576 43.7002,35.8266 44.0002,34.6416 C43.9632,34.6206 43.9352,34.6056 43.9092,34.5906 Z" id="Stroke-3"></path>
                    <path d="M33.2168,34.7414 C31.7028,35.4134 29.9308,34.7304 29.2588,33.2164 C28.5868,31.7024 29.2698,29.9304 30.7828,29.2584 C32.2968,28.5864 34.0698,29.2694 34.7408,30.7834 C35.4128,32.2974 34.7308,34.0694 33.2168,34.7414 Z" id="Stroke-1"></path>
                    <path d="M23.9395,10.5398 C23.9365,10.4678 23.9135,10.4338 23.8315,10.4218 C23.1335,10.3218 22.4375,10.2218 21.7435,10.1068 C21.3355,10.0398 21.0455,9.8018 20.9155,9.4068 C20.7395,8.8748 20.5355,8.3548 20.3045,7.8448 C20.1265,7.4528 20.1905,7.0758 20.4585,6.7378 C20.8875,6.1948 21.3225,5.6548 21.7545,5.1128 C21.7735,5.0898 21.7925,5.0658 21.8175,5.0328 C21.0995,4.0758 20.2765,3.2208 19.3475,2.4578 C19.3275,2.4738 19.3075,2.4888 19.2865,2.5038 C19.2665,2.5068 19.2475,2.5108 19.2215,2.5298 C18.6585,2.9528 18.0945,3.3748 17.5235,3.7868 C17.4485,3.8408 17.3705,3.8808 17.2925,3.9148 C17.0225,4.0128 16.7425,3.9958 16.4585,3.8508 C15.9805,3.6068 15.4935,3.3918 14.9905,3.2078 C14.5485,3.0458 14.3215,2.7168 14.2725,2.2508 C14.1995,1.5558 14.1195,0.8608 14.0425,0.1658 C14.0425,0.1578 14.0375,0.1488 14.0355,0.1418 L13.9985,0.1658 C13.9975,0.1588 13.9965,0.1538 13.9955,0.1458 C12.8125,-0.0222 11.6265,-0.0432 10.4325,0.0748 C10.3975,0.3048 10.3635,0.5288 10.3305,0.7518 C10.2555,1.2468 10.1845,1.7418 10.1065,2.2348 C10.0605,2.5228 9.9305,2.7438 9.7325,2.9048 L9.5425,3.0268 C9.4865,3.0548 9.4345,3.0868 9.3715,3.1068 C8.8625,3.2738 8.3655,3.4668 7.8795,3.6928 C7.8065,3.7268 7.7365,3.7428 7.6655,3.7608 C7.3515,3.8358 7.0495,3.7588 6.7775,3.5418 C6.2365,3.1108 5.6975,2.6768 5.1575,2.2438 C5.1335,2.2248 5.1095,2.2068 5.0765,2.1808 C5.0665,2.1878 5.0575,2.1978 5.0475,2.2058 C5.0455,2.2038 5.0435,2.2028 5.0415,2.2008 L5.0385,2.2138 C4.0995,2.9268 3.2555,3.7398 2.5065,4.6568 C2.7235,4.9528 2.9395,5.2448 3.1545,5.5368 C3.3705,5.8298 3.5865,6.1198 3.7995,6.4148 C3.9185,6.5788 3.9855,6.7498 4.0085,6.9248 L3.8825,7.5028 C3.6275,8.0278 3.3935,8.5608 3.1825,9.1058 C3.1085,9.2988 2.9935,9.4468 2.8455,9.5528 C2.8365,9.5588 2.8265,9.5628 2.8175,9.5688 C2.7585,9.6078 2.6945,9.6418 2.6265,9.6678 C2.5355,9.7008 2.4385,9.7238 2.3335,9.7358 C1.6385,9.8128 0.9465,9.8918 0.2525,9.9658 C0.2345,9.9678 0.2305,9.9768 0.2205,9.9818 C0.1975,9.9848 0.1755,9.9878 0.1445,9.9918 C-0.0225,11.1778 -0.0435,12.3668 0.0755,13.5628 C0.4375,13.6188 0.7955,13.6718 1.1545,13.7268 C1.5125,13.7808 1.8725,13.8318 2.2295,13.8898 C2.6665,13.9598 2.9635,14.2058 3.1005,14.6258 C3.2655,15.1428 3.4645,15.6448 3.6895,16.1378 C3.8745,16.5428 3.8145,16.9288 3.5365,17.2778 C3.0995,17.8238 2.6655,18.3708 2.2265,18.9148 C2.1825,18.9698 2.2075,19.0018 2.2375,19.0398 C2.4285,19.2778 2.6165,19.5198 2.8145,19.7518 C3.3115,20.3318 3.8535,20.8688 4.4335,21.3638 C4.4535,21.3798 4.4715,21.3948 4.4905,21.4098 C4.5815,21.4818 4.6255,21.5128 4.6705,21.5088 C4.6715,21.5098 4.6725,21.5108 4.6735,21.5118 C4.6785,21.5158 4.6845,21.5178 4.6985,21.5248 C4.8575,21.4078 5.0195,21.2888 5.1815,21.1688 C5.5975,20.8608 6.0135,20.5528 6.4295,20.2458 C6.5185,20.1798 6.6095,20.1298 6.7015,20.0918 C6.9565,19.9928 7.2255,19.9998 7.4955,20.1328 C8.0095,20.3868 8.5335,20.6178 9.0695,20.8238 C9.4535,20.9708 9.6695,21.2738 9.7195,21.6828 C9.8025,22.3828 9.8765,23.0848 9.9535,23.7868 C9.9585,23.8368 9.9585,23.8748 10.0285,23.8838 C10.9325,24.0068 11.8385,24.0218 12.7465,23.9768 C12.8195,23.9738 12.8925,23.9788 12.9665,23.9748 C13.0215,23.9718 13.0765,23.9648 13.1305,23.9608 C13.2535,23.9518 13.3765,23.9578 13.5015,23.9458 C13.5065,23.9448 13.5125,23.9428 13.5275,23.9378 C13.5285,23.9348 13.5285,23.9308 13.5295,23.9268 C13.5405,23.9258 13.5505,23.9208 13.5675,23.9158 C13.6105,23.6338 13.6535,23.3508 13.6965,23.0658 C13.7635,22.6178 13.8265,22.1668 13.9035,21.7198 C13.9595,21.3958 14.1285,21.1528 14.3925,21.0028 C14.4635,20.9648 14.5345,20.9268 14.6185,20.8998 C15.1145,20.7448 15.5955,20.5538 16.0675,20.3328 C16.4965,20.1308 16.8915,20.1958 17.2585,20.4928 C17.7925,20.9238 18.3305,21.3508 18.8635,21.7818 C18.8985,21.8108 18.9245,21.8088 18.9525,21.7968 C18.9575,21.7998 18.9605,21.8028 18.9645,21.8068 C19.3195,21.5388 19.6455,21.2418 19.9725,20.9458 C20.0125,20.9088 20.0565,20.8768 20.0965,20.8398 C20.3875,20.5698 20.6615,20.2788 20.9315,19.9858 C20.9875,19.9258 21.0475,19.8718 21.1025,19.8108 C21.1395,19.7698 21.1735,19.7268 21.2105,19.6838 C21.3155,19.5628 21.4325,19.4558 21.5345,19.3318 C21.4835,19.2618 21.4335,19.1928 21.3835,19.1258 C21.0045,18.6108 20.6255,18.0988 20.2485,17.5828 C19.9805,17.2178 19.9445,16.8258 20.1525,16.4218 C20.3855,15.9658 20.5985,15.5028 20.7665,15.0188 C20.8895,14.6648 21.1075,14.4418 21.4125,14.3268 C21.4865,14.3028 21.5635,14.2818 21.6475,14.2718 C22.3315,14.1918 23.0165,14.1188 23.7015,14.0418 C23.7365,14.0378 23.7725,14.0328 23.8135,14.0278 C23.8155,14.0198 23.8155,14.0118 23.8165,14.0038 C23.8565,13.9828 23.8675,13.9458 23.8735,13.9028 C23.9545,13.2958 24.0065,12.6858 23.9995,12.0738 C23.9925,11.5618 23.9595,11.0508 23.9395,10.5398 Z" id="Stroke-7"></path>
                    <path d="M9.8369,14.0793 C10.9849,15.2733 12.8849,15.3103 14.0789,14.1623 C15.2739,13.0143 15.3109,11.1153 14.1629,9.9203 C13.0149,8.7263 11.1149,8.6893 9.9209,9.8373 C8.7269,10.9853 8.6899,12.8853 9.8369,14.0793 Z" id="Stroke-5"></path>
                </g>
                <path d="M167.293,352.0006 C166.188431,352.0006 165.293,351.105169 165.293,350.0006 C165.293,348.896031 166.188431,348.0006 167.293,348.0006 L232.0001,348.0006 C233.104669,348.0006 234.0001,348.896031 234.0001,350.0006 C234.0001,351.105169 233.104669,352.0006 232.0001,352.0006 L167.293,352.0006 Z" id="Path-2" fill="url(#linearGradient-3)" fill-rule="nonzero"></path>
                <g id="Group-9-Copy-5" transform="translate(242.000000, 328.000000)" stroke="#624DA1" stroke-linecap="round" stroke-linejoin="round" stroke-width="2">
                    <path d="M42.4004,13.749 C43.4314,16.297 44.0004,19.082 44.0004,22 C44.0004,34.15 34.1504,44 22.0004,44 C9.8494,44 0.0004,34.15 0.0004,22 C0.0004,9.85 9.8494,0 22.0004,0 C26.9424,0 31.5034,1.629 35.1754,4.38" id="Stroke-4"></path>
                    <polyline id="Stroke-1" points="15.293 26.8125 8.707 22.9995 15.293 19.1875"></polyline>
                    <polyline id="Stroke-2" points="28.707 19.1875 35.293 23.0005 28.707 26.8125"></polyline>
                    <path d="M19.0566,31.647 L24.9436,14.353" id="Stroke-3"></path>
                    <path d="M39.1211,4.8789 C40.2931,6.0499 40.2931,7.9499 39.1211,9.1209 C37.9501,10.2929 36.0501,10.2929 34.8791,9.1209 C33.7071,7.9499 33.7071,6.0499 34.8791,4.8789 C36.0501,3.7069 37.9501,3.7069 39.1211,4.8789 Z" id="Stroke-6"></path>
                </g>
            </g>
        </g>
    </g>
</svg>